<?xml version="1.0" encoding="UTF-8" standalone="no"?>
<svg
   xmlns:dc="http://purl.org/dc/elements/1.1/"
   xmlns:cc="http://creativecommons.org/ns#"
   xmlns:rdf="http://www.w3.org/1999/02/22-rdf-syntax-ns#"
   xmlns:svg="http://www.w3.org/2000/svg"
   xmlns="http://www.w3.org/2000/svg"
   xmlns:sodipodi="http://sodipodi.sourceforge.net/DTD/sodipodi-0.dtd"
   xmlns:inkscape="http://www.inkscape.org/namespaces/inkscape"
   version="1.1"
   id="svg2"
   xml:space="preserve"
   width="31.39653"
   height="34.725147"
   viewBox="0 0 31.39653 34.725146"
   sodipodi:docname="logos-arcan.svg"
   inkscape:version="1.0.1 (3bc2e813f5, 2020-09-07)"><metadata
     id="metadata8"><rdf:RDF><cc:Work
         rdf:about=""><dc:format>image/svg+xml</dc:format><dc:type
           rdf:resource="http://purl.org/dc/dcmitype/StillImage" /><dc:title></dc:title></cc:Work></rdf:RDF></metadata><defs
     id="defs6"><clipPath
       clipPathUnits="userSpaceOnUse"
       id="clipPath20"><path
         d="M 2907.04,5748.56 4650.4,6980.65 3638.95,8411.84 h -500.49 l -1409.6,-996.21 z"
         id="path18" /></clipPath><clipPath
       clipPathUnits="userSpaceOnUse"
       id="clipPath32"><path
         d="M 1731.63,7411.72 3146.76,8411.84 H 1024.82 Z"
         id="path30" /></clipPath><clipPath
       clipPathUnits="userSpaceOnUse"
       id="clipPath44"><path
         d="M 1163.65,4516.46 2910.95,5751.33 1732.78,7418.4 0,6193.79 V 6163 Z"
         id="path42" /></clipPath><clipPath
       clipPathUnits="userSpaceOnUse"
       id="clipPath56"><path
         d="m 867.77,6801.2 867.77,613.28 -704.86,997.36 H 0 V 6187.91 Z"
         id="path54" /></clipPath><clipPath
       clipPathUnits="userSpaceOnUse"
       id="clipPath68"><path
         d="M 302.402,3907.79 1167.57,4519.23 0,6171.29 v -1835.6 z"
         id="path66" /></clipPath><clipPath
       clipPathUnits="userSpaceOnUse"
       id="clipPath80"><path
         d="M 3789.87,3969.98 5241.8,2518.04 5942.76,3219 v 1535.84 l -684.02,684.02 z"
         id="path78" /></clipPath><clipPath
       clipPathUnits="userSpaceOnUse"
       id="clipPath92"><path
         d="m 5238.41,2521.44 704.35,-704.36 v 1408.71 z"
         id="path90" /></clipPath><clipPath
       clipPathUnits="userSpaceOnUse"
       id="clipPath104"><path
         d="M 2315.91,2496.02 3767.84,1044.08 5245.18,2521.44 3793.25,3973.37 Z"
         id="path102" /></clipPath><clipPath
       clipPathUnits="userSpaceOnUse"
       id="clipPath116"><path
         d="M 3764.44,1047.46 4804.86,7.0625 H 5631.3 L 5942.76,318.531 V 1823.85 l -700.96,700.97 z"
         id="path114" /></clipPath><clipPath
       clipPathUnits="userSpaceOnUse"
       id="clipPath128"><path
         d="m 5624.52,7.0625 h 318.24 V 325.301 Z"
         id="path126" /></clipPath><clipPath
       clipPathUnits="userSpaceOnUse"
       id="clipPath140"><path
         d="M 1340.89,1521 2854.82,7.0625 H 4665.6 L 4738.62,80.082 2319.29,2499.41 Z"
         id="path138" /></clipPath><clipPath
       clipPathUnits="userSpaceOnUse"
       id="clipPath152"><path
         d="m 4658.82,7.0625 h 152.82 l -76.41,76.4141 z"
         id="path150" /></clipPath><clipPath
       clipPathUnits="userSpaceOnUse"
       id="clipPath164"><path
         d="m 0,7.0625 h 5942.77 v 8404.77 H 0 Z"
         id="path162" /></clipPath><clipPath
       clipPathUnits="userSpaceOnUse"
       id="clipPath174"><path
         d="m 0,7.0625 h 5950 v 8405.87 H 0 Z"
         id="path172" /></clipPath><clipPath
       clipPathUnits="userSpaceOnUse"
       id="clipPath200"><path
         d="m 0,7.0625 h 5942.77 v 8404.77 H 0 Z"
         id="path198" /></clipPath><clipPath
       clipPathUnits="userSpaceOnUse"
       id="clipPath210"><path
         d="m 0,7.0625 h 5950 v 8405.87 H 0 Z"
         id="path208" /></clipPath><clipPath
       clipPathUnits="userSpaceOnUse"
       id="clipPath254"><path
         d="m 0,7.0625 h 5942.77 v 8404.77 H 0 Z"
         id="path252" /></clipPath><clipPath
       clipPathUnits="userSpaceOnUse"
       id="clipPath264"><path
         d="m 0,7.0625 h 5950 v 8405.87 H 0 Z"
         id="path262" /></clipPath><clipPath
       clipPathUnits="userSpaceOnUse"
       id="clipPath288"><path
         d="m 0,7.0625 h 5942.77 v 8404.77 H 0 Z"
         id="path286" /></clipPath><clipPath
       clipPathUnits="userSpaceOnUse"
       id="clipPath300"><path
         d="m 0,7.0625 h 5950 v 8405.87 H 0 Z"
         id="path298" /></clipPath><clipPath
       clipPathUnits="userSpaceOnUse"
       id="clipPath326"><path
         d="m 0,7.0625 h 5942.77 v 8404.77 H 0 Z"
         id="path324" /></clipPath><clipPath
       clipPathUnits="userSpaceOnUse"
       id="clipPath414"><path
         d="m 0,7.0625 h 5950 v 8405.87 H 0 Z"
         id="path412" /></clipPath><clipPath
       clipPathUnits="userSpaceOnUse"
       id="clipPath424"><path
         d="m 0,7.0625 h 5942.77 v 8404.77 H 0 Z"
         id="path422" /></clipPath><clipPath
       clipPathUnits="userSpaceOnUse"
       id="clipPath442"><path
         d="m 0,7.0625 h 5950 v 8405.87 H 0 Z"
         id="path440" /></clipPath><clipPath
       clipPathUnits="userSpaceOnUse"
       id="clipPath456"><path
         d="m 0,7.0625 h 5942.77 v 8404.77 H 0 Z"
         id="path454" /></clipPath><clipPath
       clipPathUnits="userSpaceOnUse"
       id="clipPath466"><path
         d="m 0,7.0625 h 5950 v 8405.87 H 0 Z"
         id="path464" /></clipPath><clipPath
       clipPathUnits="userSpaceOnUse"
       id="clipPath476"><path
         d="m 0,7.0625 h 5942.77 v 8404.77 H 0 Z"
         id="path474" /></clipPath><clipPath
       clipPathUnits="userSpaceOnUse"
       id="clipPath486"><path
         d="m 0,7.0625 h 5950 v 8405.87 H 0 Z"
         id="path484" /></clipPath><clipPath
       clipPathUnits="userSpaceOnUse"
       id="clipPath496"><path
         d="m 0,7.0625 h 5942.77 v 8404.77 H 0 Z"
         id="path494" /></clipPath><clipPath
       clipPathUnits="userSpaceOnUse"
       id="clipPath506"><path
         d="m 0,7.0625 h 5950 v 8405.87 H 0 Z"
         id="path504" /></clipPath><clipPath
       clipPathUnits="userSpaceOnUse"
       id="clipPath518"><path
         d="m 0,7.0625 h 5942.77 v 8404.77 H 0 Z"
         id="path516" /></clipPath><clipPath
       clipPathUnits="userSpaceOnUse"
       id="clipPath528"><path
         d="m 0,7.0625 h 5950 v 8405.87 H 0 Z"
         id="path526" /></clipPath><clipPath
       clipPathUnits="userSpaceOnUse"
       id="clipPath538"><path
         d="m 1875.09,528.129 h 250.496 v 167 H 1875.09 Z"
         id="path536" /></clipPath><clipPath
       clipPathUnits="userSpaceOnUse"
       id="clipPath548"><path
         d="m 0,7.0625 h 5950 v 8405.87 H 0 Z"
         id="path546" /></clipPath><clipPath
       clipPathUnits="userSpaceOnUse"
       id="clipPath624"><path
         d="m 0,7.0625 h 5942.77 v 8404.77 H 0 Z"
         id="path622" /></clipPath><clipPath
       clipPathUnits="userSpaceOnUse"
       id="clipPath638"><path
         d="m 0,7.0625 h 5950 v 8405.87 H 0 Z"
         id="path636" /></clipPath><clipPath
       clipPathUnits="userSpaceOnUse"
       id="clipPath660"><path
         d="m 0,7.0625 h 5942.77 v 8404.77 H 0 Z"
         id="path658" /></clipPath><clipPath
       clipPathUnits="userSpaceOnUse"
       id="clipPath670"><path
         d="m 0,7.0625 h 5950 v 8405.87 H 0 Z"
         id="path668" /></clipPath><clipPath
       clipPathUnits="userSpaceOnUse"
       id="clipPath684"><path
         d="m 0,7.0625 h 5942.77 v 8404.77 H 0 Z"
         id="path682" /></clipPath><clipPath
       clipPathUnits="userSpaceOnUse"
       id="clipPath694"><path
         d="m 0,7.0625 h 5950 v 8405.87 H 0 Z"
         id="path692" /></clipPath><clipPath
       clipPathUnits="userSpaceOnUse"
       id="clipPath718"><path
         d="m 0,7.0625 h 5942.77 v 8404.77 H 0 Z"
         id="path716" /></clipPath><clipPath
       clipPathUnits="userSpaceOnUse"
       id="clipPath728"><path
         d="m 0,7.0625 h 5950 v 8405.87 H 0 Z"
         id="path726" /></clipPath><clipPath
       clipPathUnits="userSpaceOnUse"
       id="clipPath326-7"><path
         d="m 0,7.0625 h 5942.77 v 8404.77 H 0 Z"
         id="path324-8" /></clipPath><clipPath
       clipPathUnits="userSpaceOnUse"
       id="clipPath414-5"><path
         d="m 0,7.0625 h 5950 v 8405.87 H 0 Z"
         id="path412-7" /></clipPath><clipPath
       clipPathUnits="userSpaceOnUse"
       id="clipPath424-4"><path
         d="m 0,7.0625 h 5942.77 v 8404.77 H 0 Z"
         id="path422-1" /></clipPath><clipPath
       clipPathUnits="userSpaceOnUse"
       id="clipPath442-8"><path
         d="m 0,7.0625 h 5950 v 8405.87 H 0 Z"
         id="path440-5" /></clipPath><clipPath
       clipPathUnits="userSpaceOnUse"
       id="clipPath456-9"><path
         d="m 0,7.0625 h 5942.77 v 8404.77 H 0 Z"
         id="path454-7" /></clipPath><clipPath
       clipPathUnits="userSpaceOnUse"
       id="clipPath466-5"><path
         d="m 0,7.0625 h 5950 v 8405.87 H 0 Z"
         id="path464-3" /></clipPath><clipPath
       clipPathUnits="userSpaceOnUse"
       id="clipPath476-8"><path
         d="m 0,7.0625 h 5942.77 v 8404.77 H 0 Z"
         id="path474-8" /></clipPath><clipPath
       clipPathUnits="userSpaceOnUse"
       id="clipPath486-3"><path
         d="m 0,7.0625 h 5950 v 8405.87 H 0 Z"
         id="path484-1" /></clipPath><clipPath
       clipPathUnits="userSpaceOnUse"
       id="clipPath496-8"><path
         d="m 0,7.0625 h 5942.77 v 8404.77 H 0 Z"
         id="path494-9" /></clipPath><clipPath
       clipPathUnits="userSpaceOnUse"
       id="clipPath506-6"><path
         d="m 0,7.0625 h 5950 v 8405.87 H 0 Z"
         id="path504-4" /></clipPath><clipPath
       clipPathUnits="userSpaceOnUse"
       id="clipPath518-3"><path
         d="m 0,7.0625 h 5942.77 v 8404.77 H 0 Z"
         id="path516-3" /></clipPath><clipPath
       clipPathUnits="userSpaceOnUse"
       id="clipPath528-3"><path
         d="m 0,7.0625 h 5950 v 8405.87 H 0 Z"
         id="path526-8" /></clipPath><clipPath
       clipPathUnits="userSpaceOnUse"
       id="clipPath538-6"><path
         d="m 1875.09,528.129 h 250.496 v 167 H 1875.09 Z"
         id="path536-0" /></clipPath><clipPath
       clipPathUnits="userSpaceOnUse"
       id="clipPath624-4"><path
         d="m 0,7.0625 h 5942.77 v 8404.77 H 0 Z"
         id="path622-8" /></clipPath></defs><sodipodi:namedview
     pagecolor="#ffffff"
     bordercolor="#666666"
     borderopacity="1"
     objecttolerance="10"
     gridtolerance="10"
     guidetolerance="10"
     inkscape:pageopacity="0"
     inkscape:pageshadow="2"
     inkscape:window-width="2560"
     inkscape:window-height="1379"
     id="namedview4"
     showgrid="false"
     fit-margin-top="0"
     fit-margin-left="0"
     fit-margin-right="0"
     fit-margin-bottom="0"
     inkscape:zoom="3.3868041"
     inkscape:cx="-187.83554"
     inkscape:cy="-23.049375"
     inkscape:window-x="0"
     inkscape:window-y="0"
     inkscape:window-maximized="1"
     inkscape:current-layer="g10"
     inkscape:document-rotation="0" /><g
     id="g10"
     inkscape:groupmode="layer"
     inkscape:label="SMC-22-court"
     transform="matrix(1.3333333,0,0,-1.3333333,-682.2874,609.3339)"><g
       id="g322"
       clip-path="url(#clipPath326-7)"
       transform="matrix(0.1,0,0,0.1,0.01496038,383.22056)"><path
         d="m 5188.96,605.887 v -25.071 c -1.17,0 -2.25,0.02 -3.33,0 -10.23,-0.168 -20.49,0.071 -30.68,-0.636 -8.53,-0.59 -12.66,-5.453 -12.75,-14.028 -0.16,-16.281 -0.16,-32.574 0,-48.859 0.09,-8.676 4.38,-13.266 12.99,-14.156 4.61,-0.477 9.29,-0.43 13.94,-0.477 6.5,-0.07 13.01,-0.019 19.85,-0.019 v -14.149 c 0.18,-0.008 0.36,-0.019 0.54,-0.031 6.2,39.074 12.41,78.141 18.62,117.305 h 46.12 c 5.51,-34.723 11.01,-69.364 16.51,-104.016 0.14,0.02 0.28,0.031 0.42,0.039 v 74.195 l 0.47,0.161 c 2.31,-4.372 4.64,-8.747 6.95,-13.129 5.59,-10.61 11.19,-21.203 16.73,-31.836 0.54,-1.035 0.98,-2.266 0.98,-3.403 0.07,-16.285 0.05,-32.574 0.04,-48.867 0,-0.351 -0.08,-0.711 -0.17,-1.418 h -3.01 c -44.11,0 -88.23,-0.051 -132.35,0.071 -5.45,0.019 -10.98,0.578 -16.33,1.625 -15.37,2.996 -23.77,11.781 -26.27,27.183 -0.7,4.383 -1.06,8.875 -1.1,13.32 -0.14,15.172 -0.2,30.348 0.03,45.512 0.08,5.082 0.68,10.242 1.81,15.195 3.23,14.047 12.54,22.211 27.78,24.309 6.23,0.859 12.59,0.988 18.91,1.137 7.69,0.179 15.4,0.043 23.3,0.043 m 27.87,-103.219 h 28.44 c -4.62,29.59 -9.21,58.941 -13.81,88.293 -0.17,0.008 -0.35,0.019 -0.53,0.031 -4.69,-29.383 -9.38,-58.762 -14.1,-88.324"
         style="fill:#000000;fill-opacity:1;fill-rule:nonzero;stroke:none"
         id="path328" /><path
         d="m 5204.77,609.402 h -86.76 c 6.79,42.778 13.54,85.395 20.33,128.145 h 46.1 c 6.76,-42.598 13.52,-85.238 20.33,-128.145 m -29.28,24.817 c -4.63,29.621 -9.22,59.031 -13.83,88.433 -0.18,0 -0.37,-0.011 -0.56,-0.011 -4.69,-29.399 -9.38,-58.801 -14.11,-88.422 h 28.5"
         style="fill:#000000;fill-opacity:1;fill-rule:nonzero;stroke:none"
         id="path330" /><path
         d="m 5294.73,609.078 c -6.05,0 -11.54,-0.098 -17.01,0.102 -0.84,0.027 -1.9,1.258 -2.4,2.183 -11.44,21.594 -22.82,43.219 -34.21,64.844 -10.38,19.734 -20.76,39.473 -31.13,59.211 -0.34,0.629 -0.59,1.297 -1.03,2.273 h 2.72 c 11.91,0 23.84,0.313 35.73,-0.128 5.39,-0.211 10.94,-1.297 16.05,-3.036 10.03,-3.422 16.24,-10.949 19.19,-20.972 3.58,-12.11 3.52,-24.43 0.93,-36.711 -1.62,-7.696 -5.95,-13.727 -12.44,-18.188 -0.59,-0.41 -1.15,-0.871 -1.92,-1.437 8.44,-15.914 16.83,-31.727 25.52,-48.141 m -55.27,105.563 c 6.13,-11.84 11.89,-22.969 17.98,-34.731 1.19,2.176 2.19,3.645 2.82,5.242 2.18,5.551 2.03,11.282 0.94,17.012 -1.16,6.09 -4.76,10.051 -10.87,11.289 -3.33,0.668 -6.76,0.758 -10.87,1.188"
         style="fill:#000000;fill-opacity:1;fill-rule:nonzero;stroke:none"
         id="path332" /><path
         d="m 5352.48,477.688 c -4.71,-1.059 -7.27,0.417 -9.57,4.871 -20.98,40.402 -42.27,80.632 -63.46,120.918 -0.34,0.636 -0.65,1.296 -1.18,2.394 5.95,0 11.57,0.07 17.17,-0.078 0.7,-0.02 1.59,-1.121 2.01,-1.91 9.49,-17.887 18.93,-35.809 28.39,-53.719 0.42,-0.777 0.87,-1.535 1.75,-3.043 v 58.582 h 24.89 V 477.688"
         style="fill:#000000;fill-opacity:1;fill-rule:nonzero;stroke:none"
         id="path334" /><path
         d="m 5208.18,675.938 c 3.41,0 6.48,0.109 9.52,-0.071 0.8,-0.051 1.86,-0.832 2.26,-1.57 4.24,-7.844 8.37,-15.754 12.49,-23.649 0.33,-0.64 0.59,-1.398 0.59,-2.105 0.04,-12.918 0.03,-25.84 0.03,-38.996 h -24.89 v 66.391"
         style="fill:#000000;fill-opacity:1;fill-rule:nonzero;stroke:none"
         id="path336" /></g><g
       id="g410"
       clip-path="url(#clipPath414-5)"
       transform="matrix(0.1,0,0,0.1,0.01496038,383.22056)" /></g></svg>
