<svg id="b6356d30-56a7-4471-822f-bc8905e0b32b" data-name="Calque 1" xmlns="http://www.w3.org/2000/svg" viewBox="0 0 400 400"><title>smc22_Logo_2</title><path d="M159.88,35A166.25,166.25,0,1,1,15,220.17,166.25,166.25,0,0,1,159.88,35M224.26,398.5C333.89,385.1,411.9,285.37,398.5,175.74S285.37-11.9,175.74,1.5-11.9,114.63,1.5,224.26,114.64,411.9,224.26,398.5" transform="translate(0 0)" fill="#fff"/><path d="M180.05,299.75A99.75,99.75,0,1,1,279.8,200a99.75,99.75,0,0,1-99.75,99.75M160.11,67a133,133,0,1,0,133,133,133,133,0,0,0-133-133" transform="translate(0 0)" fill="#4ecca3"/><path d="M200,233.25A33.25,33.25,0,1,1,233.25,200,33.25,33.25,0,0,1,200,233.25M220,133.5A66.5,66.5,0,1,0,286.44,200,66.5,66.5,0,0,0,220,133.5" transform="translate(0 0)" fill="#fff"/></svg>