<?xml version="1.0" encoding="UTF-8" standalone="no"?>
<svg
   xmlns:dc="http://purl.org/dc/elements/1.1/"
   xmlns:cc="http://creativecommons.org/ns#"
   xmlns:rdf="http://www.w3.org/1999/02/22-rdf-syntax-ns#"
   xmlns:svg="http://www.w3.org/2000/svg"
   xmlns="http://www.w3.org/2000/svg"
   xmlns:sodipodi="http://sodipodi.sourceforge.net/DTD/sodipodi-0.dtd"
   xmlns:inkscape="http://www.inkscape.org/namespaces/inkscape"
   version="1.1"
   id="svg2"
   xml:space="preserve"
   width="64.109329"
   height="34.725597"
   viewBox="0 0 64.109329 34.725596"
   sodipodi:docname="logos-ujm.svg"
   inkscape:version="1.0.1 (3bc2e813f5, 2020-09-07)"><metadata
     id="metadata8"><rdf:RDF><cc:Work
         rdf:about=""><dc:format>image/svg+xml</dc:format><dc:type
           rdf:resource="http://purl.org/dc/dcmitype/StillImage" /><dc:title></dc:title></cc:Work></rdf:RDF></metadata><defs
     id="defs6"><clipPath
       clipPathUnits="userSpaceOnUse"
       id="clipPath20"><path
         d="M 2907.04,5748.56 4650.4,6980.65 3638.95,8411.84 h -500.49 l -1409.6,-996.21 z"
         id="path18" /></clipPath><clipPath
       clipPathUnits="userSpaceOnUse"
       id="clipPath32"><path
         d="M 1731.63,7411.72 3146.76,8411.84 H 1024.82 Z"
         id="path30" /></clipPath><clipPath
       clipPathUnits="userSpaceOnUse"
       id="clipPath44"><path
         d="M 1163.65,4516.46 2910.95,5751.33 1732.78,7418.4 0,6193.79 V 6163 Z"
         id="path42" /></clipPath><clipPath
       clipPathUnits="userSpaceOnUse"
       id="clipPath56"><path
         d="m 867.77,6801.2 867.77,613.28 -704.86,997.36 H 0 V 6187.91 Z"
         id="path54" /></clipPath><clipPath
       clipPathUnits="userSpaceOnUse"
       id="clipPath68"><path
         d="M 302.402,3907.79 1167.57,4519.23 0,6171.29 v -1835.6 z"
         id="path66" /></clipPath><clipPath
       clipPathUnits="userSpaceOnUse"
       id="clipPath80"><path
         d="M 3789.87,3969.98 5241.8,2518.04 5942.76,3219 v 1535.84 l -684.02,684.02 z"
         id="path78" /></clipPath><clipPath
       clipPathUnits="userSpaceOnUse"
       id="clipPath92"><path
         d="m 5238.41,2521.44 704.35,-704.36 v 1408.71 z"
         id="path90" /></clipPath><clipPath
       clipPathUnits="userSpaceOnUse"
       id="clipPath104"><path
         d="M 2315.91,2496.02 3767.84,1044.08 5245.18,2521.44 3793.25,3973.37 Z"
         id="path102" /></clipPath><clipPath
       clipPathUnits="userSpaceOnUse"
       id="clipPath116"><path
         d="M 3764.44,1047.46 4804.86,7.0625 H 5631.3 L 5942.76,318.531 V 1823.85 l -700.96,700.97 z"
         id="path114" /></clipPath><clipPath
       clipPathUnits="userSpaceOnUse"
       id="clipPath128"><path
         d="m 5624.52,7.0625 h 318.24 V 325.301 Z"
         id="path126" /></clipPath><clipPath
       clipPathUnits="userSpaceOnUse"
       id="clipPath140"><path
         d="M 1340.89,1521 2854.82,7.0625 H 4665.6 L 4738.62,80.082 2319.29,2499.41 Z"
         id="path138" /></clipPath><clipPath
       clipPathUnits="userSpaceOnUse"
       id="clipPath152"><path
         d="m 4658.82,7.0625 h 152.82 l -76.41,76.4141 z"
         id="path150" /></clipPath><clipPath
       clipPathUnits="userSpaceOnUse"
       id="clipPath164"><path
         d="m 0,7.0625 h 5942.77 v 8404.77 H 0 Z"
         id="path162" /></clipPath><clipPath
       clipPathUnits="userSpaceOnUse"
       id="clipPath174"><path
         d="m 0,7.0625 h 5950 v 8405.87 H 0 Z"
         id="path172" /></clipPath><clipPath
       clipPathUnits="userSpaceOnUse"
       id="clipPath200"><path
         d="m 0,7.0625 h 5942.77 v 8404.77 H 0 Z"
         id="path198" /></clipPath><clipPath
       clipPathUnits="userSpaceOnUse"
       id="clipPath210"><path
         d="m 0,7.0625 h 5950 v 8405.87 H 0 Z"
         id="path208" /></clipPath><clipPath
       clipPathUnits="userSpaceOnUse"
       id="clipPath254"><path
         d="m 0,7.0625 h 5942.77 v 8404.77 H 0 Z"
         id="path252" /></clipPath><clipPath
       clipPathUnits="userSpaceOnUse"
       id="clipPath264"><path
         d="m 0,7.0625 h 5950 v 8405.87 H 0 Z"
         id="path262" /></clipPath><clipPath
       clipPathUnits="userSpaceOnUse"
       id="clipPath288"><path
         d="m 0,7.0625 h 5942.77 v 8404.77 H 0 Z"
         id="path286" /></clipPath><clipPath
       clipPathUnits="userSpaceOnUse"
       id="clipPath300"><path
         d="m 0,7.0625 h 5950 v 8405.87 H 0 Z"
         id="path298" /></clipPath><clipPath
       clipPathUnits="userSpaceOnUse"
       id="clipPath326"><path
         d="m 0,7.0625 h 5942.77 v 8404.77 H 0 Z"
         id="path324" /></clipPath><clipPath
       clipPathUnits="userSpaceOnUse"
       id="clipPath414"><path
         d="m 0,7.0625 h 5950 v 8405.87 H 0 Z"
         id="path412" /></clipPath><clipPath
       clipPathUnits="userSpaceOnUse"
       id="clipPath424"><path
         d="m 0,7.0625 h 5942.77 v 8404.77 H 0 Z"
         id="path422" /></clipPath><clipPath
       clipPathUnits="userSpaceOnUse"
       id="clipPath442"><path
         d="m 0,7.0625 h 5950 v 8405.87 H 0 Z"
         id="path440" /></clipPath><clipPath
       clipPathUnits="userSpaceOnUse"
       id="clipPath456"><path
         d="m 0,7.0625 h 5942.77 v 8404.77 H 0 Z"
         id="path454" /></clipPath><clipPath
       clipPathUnits="userSpaceOnUse"
       id="clipPath466"><path
         d="m 0,7.0625 h 5950 v 8405.87 H 0 Z"
         id="path464" /></clipPath><clipPath
       clipPathUnits="userSpaceOnUse"
       id="clipPath476"><path
         d="m 0,7.0625 h 5942.77 v 8404.77 H 0 Z"
         id="path474" /></clipPath><clipPath
       clipPathUnits="userSpaceOnUse"
       id="clipPath486"><path
         d="m 0,7.0625 h 5950 v 8405.87 H 0 Z"
         id="path484" /></clipPath><clipPath
       clipPathUnits="userSpaceOnUse"
       id="clipPath496"><path
         d="m 0,7.0625 h 5942.77 v 8404.77 H 0 Z"
         id="path494" /></clipPath><clipPath
       clipPathUnits="userSpaceOnUse"
       id="clipPath506"><path
         d="m 0,7.0625 h 5950 v 8405.87 H 0 Z"
         id="path504" /></clipPath><clipPath
       clipPathUnits="userSpaceOnUse"
       id="clipPath518"><path
         d="m 0,7.0625 h 5942.77 v 8404.77 H 0 Z"
         id="path516" /></clipPath><clipPath
       clipPathUnits="userSpaceOnUse"
       id="clipPath528"><path
         d="m 0,7.0625 h 5950 v 8405.87 H 0 Z"
         id="path526" /></clipPath><clipPath
       clipPathUnits="userSpaceOnUse"
       id="clipPath538"><path
         d="m 1875.09,528.129 h 250.496 v 167 H 1875.09 Z"
         id="path536" /></clipPath><clipPath
       clipPathUnits="userSpaceOnUse"
       id="clipPath548"><path
         d="m 0,7.0625 h 5950 v 8405.87 H 0 Z"
         id="path546" /></clipPath><clipPath
       clipPathUnits="userSpaceOnUse"
       id="clipPath624"><path
         d="m 0,7.0625 h 5942.77 v 8404.77 H 0 Z"
         id="path622" /></clipPath><clipPath
       clipPathUnits="userSpaceOnUse"
       id="clipPath638"><path
         d="m 0,7.0625 h 5950 v 8405.87 H 0 Z"
         id="path636" /></clipPath><clipPath
       clipPathUnits="userSpaceOnUse"
       id="clipPath660"><path
         d="m 0,7.0625 h 5942.77 v 8404.77 H 0 Z"
         id="path658" /></clipPath><clipPath
       clipPathUnits="userSpaceOnUse"
       id="clipPath670"><path
         d="m 0,7.0625 h 5950 v 8405.87 H 0 Z"
         id="path668" /></clipPath><clipPath
       clipPathUnits="userSpaceOnUse"
       id="clipPath684"><path
         d="m 0,7.0625 h 5942.77 v 8404.77 H 0 Z"
         id="path682" /></clipPath><clipPath
       clipPathUnits="userSpaceOnUse"
       id="clipPath694"><path
         d="m 0,7.0625 h 5950 v 8405.87 H 0 Z"
         id="path692" /></clipPath><clipPath
       clipPathUnits="userSpaceOnUse"
       id="clipPath718"><path
         d="m 0,7.0625 h 5942.77 v 8404.77 H 0 Z"
         id="path716" /></clipPath><clipPath
       clipPathUnits="userSpaceOnUse"
       id="clipPath728"><path
         d="m 0,7.0625 h 5950 v 8405.87 H 0 Z"
         id="path726" /></clipPath><clipPath
       clipPathUnits="userSpaceOnUse"
       id="clipPath326-7"><path
         d="m 0,7.0625 h 5942.77 v 8404.77 H 0 Z"
         id="path324-8" /></clipPath><clipPath
       clipPathUnits="userSpaceOnUse"
       id="clipPath414-5"><path
         d="m 0,7.0625 h 5950 v 8405.87 H 0 Z"
         id="path412-7" /></clipPath><clipPath
       clipPathUnits="userSpaceOnUse"
       id="clipPath424-4"><path
         d="m 0,7.0625 h 5942.77 v 8404.77 H 0 Z"
         id="path422-1" /></clipPath><clipPath
       clipPathUnits="userSpaceOnUse"
       id="clipPath442-8"><path
         d="m 0,7.0625 h 5950 v 8405.87 H 0 Z"
         id="path440-5" /></clipPath><clipPath
       clipPathUnits="userSpaceOnUse"
       id="clipPath456-9"><path
         d="m 0,7.0625 h 5942.77 v 8404.77 H 0 Z"
         id="path454-7" /></clipPath><clipPath
       clipPathUnits="userSpaceOnUse"
       id="clipPath466-5"><path
         d="m 0,7.0625 h 5950 v 8405.87 H 0 Z"
         id="path464-3" /></clipPath><clipPath
       clipPathUnits="userSpaceOnUse"
       id="clipPath476-8"><path
         d="m 0,7.0625 h 5942.77 v 8404.77 H 0 Z"
         id="path474-8" /></clipPath><clipPath
       clipPathUnits="userSpaceOnUse"
       id="clipPath486-3"><path
         d="m 0,7.0625 h 5950 v 8405.87 H 0 Z"
         id="path484-1" /></clipPath><clipPath
       clipPathUnits="userSpaceOnUse"
       id="clipPath496-8"><path
         d="m 0,7.0625 h 5942.77 v 8404.77 H 0 Z"
         id="path494-9" /></clipPath><clipPath
       clipPathUnits="userSpaceOnUse"
       id="clipPath506-6"><path
         d="m 0,7.0625 h 5950 v 8405.87 H 0 Z"
         id="path504-4" /></clipPath><clipPath
       clipPathUnits="userSpaceOnUse"
       id="clipPath518-3"><path
         d="m 0,7.0625 h 5942.77 v 8404.77 H 0 Z"
         id="path516-3" /></clipPath><clipPath
       clipPathUnits="userSpaceOnUse"
       id="clipPath528-3"><path
         d="m 0,7.0625 h 5950 v 8405.87 H 0 Z"
         id="path526-8" /></clipPath><clipPath
       clipPathUnits="userSpaceOnUse"
       id="clipPath538-6"><path
         d="m 1875.09,528.129 h 250.496 v 167 H 1875.09 Z"
         id="path536-0" /></clipPath><clipPath
       clipPathUnits="userSpaceOnUse"
       id="clipPath624-4"><path
         d="m 0,7.0625 h 5942.77 v 8404.77 H 0 Z"
         id="path622-8" /></clipPath></defs><sodipodi:namedview
     pagecolor="#ffffff"
     bordercolor="#666666"
     borderopacity="1"
     objecttolerance="10"
     gridtolerance="10"
     guidetolerance="10"
     inkscape:pageopacity="0"
     inkscape:pageshadow="2"
     inkscape:window-width="2560"
     inkscape:window-height="1379"
     id="namedview4"
     showgrid="false"
     fit-margin-top="0"
     fit-margin-left="0"
     fit-margin-right="0"
     fit-margin-bottom="0"
     inkscape:zoom="2.4007726"
     inkscape:cx="273.92189"
     inkscape:cy="-0.3213344"
     inkscape:window-x="0"
     inkscape:window-y="0"
     inkscape:window-maximized="1"
     inkscape:current-layer="g10"
     inkscape:document-rotation="0" /><g
     id="g10"
     inkscape:groupmode="layer"
     inkscape:label="SMC-22-court"
     transform="matrix(1.3333333,0,0,-1.3333333,-62.726746,609.3342)"><g
       id="g322"
       clip-path="url(#clipPath326-7)"
       transform="matrix(0.1,0,0,0.1,0.01496038,383.22056)"><path
         d="m 470.301,688.297 c 0.379,-0.02 0.758,-0.063 1.137,-0.063 7.269,0 14.546,0 21.824,0 h 1.207 c 0.019,-0.496 0.051,-0.925 0.051,-1.355 0.007,-13.656 0.007,-27.316 0.007,-40.973 0,-26.972 0,-53.957 0,-80.933 0,-8.164 1.45,-16.032 4.383,-23.578 2.805,-7.192 6.738,-13.61 11.82,-19.219 7.809,-8.606 17.165,-14.387 28.083,-17.293 3.007,-0.789 6.042,-1.406 9.148,-1.535 2.742,-0.121 5.5,-0.289 8.246,-0.129 6.797,0.398 13.356,2.043 19.586,5 14.074,6.687 24.207,17.558 30.398,32.566 2.297,5.578 3.723,11.418 4.262,17.488 0.199,2.207 0.34,4.422 0.34,6.641 0.02,40.602 0.02,81.203 0.02,121.805 v 1.457 h 23.941 c 0.019,-0.231 0.07,-0.488 0.078,-0.738 0.012,-0.34 0,-0.68 0,-1.008 0,-40.403 0.051,-80.805 -0.008,-121.207 -0.043,-23.153 -7.539,-43.278 -22.402,-60.188 -11.074,-12.601 -24.59,-20.906 -40.363,-25.027 -3.743,-0.981 -7.528,-1.688 -11.371,-2.028 -1.797,-0.16 -3.594,-0.3 -5.391,-0.46 -0.18,-0.008 -0.348,-0.11 -0.527,-0.161 h -4.176 c -0.239,0.063 -0.477,0.153 -0.719,0.172 -4.062,0.278 -8.117,0.668 -12.141,1.457 -8.195,1.606 -15.98,4.461 -23.339,8.625 -12.719,7.18 -23.02,17.211 -30.829,30.078 -7.695,12.7 -11.988,26.598 -12.886,41.68 -0.051,0.859 -0.25,1.707 -0.379,2.567 v 126.359"
         style="fill:#000000;fill-opacity:1;fill-rule:nonzero;stroke:none"
         id="path338" /><path
         d="m 470.301,737.75 c 0.379,0.02 0.758,0.051 1.137,0.051 54.05,0 108.109,0 162.167,0 h 1.247 v -24.797 h -1.446 c -53.898,0 -107.801,0 -161.687,0 -0.481,0 -0.949,-0.051 -1.418,-0.082 v 24.828"
         style="fill:#000000;fill-opacity:1;fill-rule:nonzero;stroke:none"
         id="path340" /><path
         d="m 951.121,629.758 h -5.523 c -0.051,-1.348 -0.02,-2.684 -0.02,-4.012 -0.008,-1.348 0,-2.695 0,-4.035 v -4.043 -4.133 -4.031 -4.035 c 0,-1.336 0,-2.676 0,-4.063 h -9.594 c -0.039,0.43 -0.097,0.887 -0.097,1.336 -0.012,8.508 -0.012,17.012 -0.012,25.52 v 1.496 h -5.41 c -0.32,0.769 -0.41,6.867 -0.152,8.406 0.371,0.02 0.769,0.051 1.167,0.051 6.133,0.008 12.27,0.008 18.403,0.008 0.418,0 0.828,0.011 1.238,0.011 v -8.476"
         style="fill:#000000;fill-opacity:1;fill-rule:nonzero;stroke:none"
         id="path342" /><path
         d="m 517.891,688.223 h 69.504 c 0.207,-0.731 0.277,-22.965 0.07,-24.481 -0.41,-0.019 -0.84,-0.058 -1.27,-0.058 -12.527,0 -25.058,0 -37.586,0 -0.41,0 -0.828,-0.071 -1.277,-0.243 2.734,-2.234 5.578,-4.203 8.395,-6.238 2.785,-2.015 5.589,-4.035 8.515,-6.129 -1.957,-1.418 -3.824,-2.765 -5.691,-4.105 -1.887,-1.356 -3.774,-2.715 -5.649,-4.082 -1.867,-1.348 -3.773,-2.645 -5.589,-4.063 0.019,-0.082 0.039,-0.16 0.058,-0.25 0.391,-0.019 0.789,-0.078 1.18,-0.078 3.793,0 7.586,0 11.39,0 8.723,0 17.461,0 26.184,0 h 1.379 v -24.43 c -0.352,-0.039 -0.711,-0.109 -1.07,-0.109 -7.567,0 -15.121,-0.012 -22.68,0 -8.766,0.008 -17.531,0.047 -26.285,0.07 -6.141,0.008 -12.281,0.02 -18.41,0.028 -0.321,0 -0.629,0 -1.047,0 -0.051,0.371 -0.11,0.679 -0.11,1 -0.011,7.636 0,15.273 -0.031,22.91 0,0.758 0.391,1.058 0.879,1.387 5.57,3.644 11.141,7.3 16.711,10.953 0.32,0.211 0.617,0.437 1.066,0.75 -0.425,0.308 -0.746,0.547 -1.078,0.777 -5.539,3.703 -11.058,7.438 -16.621,11.113 -0.707,0.469 -0.957,0.977 -0.957,1.856 0.031,7.367 0.02,14.726 0.02,22.094 v 1.328"
         style="fill:#000000;fill-opacity:1;fill-rule:nonzero;stroke:none"
         id="path344" /><path
         d="m 517.832,576.727 v 24.711 h 1.18 c 11.261,0 22.511,0.07 33.773,-0.02 8.914,-0.07 16.77,-3.277 23.379,-9.676 5.961,-5.758 9.723,-12.906 10.941,-21.363 1.77,-12.359 -1.406,-23.172 -9.601,-32.195 -4.832,-5.321 -10.734,-8.657 -17.512,-10.243 -2.137,-0.5 -4.304,-0.761 -6.488,-0.781 -3.754,-0.019 -7.52,-0.008 -11.281,0 -0.321,0 -0.629,0.031 -0.918,0.051 -0.223,0.777 -0.313,22.801 -0.102,24.539 0.32,0.02 0.649,0.051 0.988,0.051 3.414,0 6.829,0 10.243,0 5.929,0.008 10.781,4.222 11.793,10.41 1.027,6.402 -2.668,12.359 -8.497,14.066 -0.91,0.27 -1.867,0.422 -2.808,0.422 -11.289,0.028 -22.582,0.028 -33.871,0.028 -0.379,0 -0.75,0 -1.219,0"
         style="fill:#000000;fill-opacity:1;fill-rule:nonzero;stroke:none"
         id="path346" /><path
         d="m 800.578,608.852 h -7.937 c -0.668,2.238 -1.348,4.484 -2.016,6.742 -0.07,-0.012 -0.141,-0.024 -0.211,-0.024 -0.039,-0.207 -0.101,-0.406 -0.109,-0.617 -0.082,-4.094 -0.153,-8.195 -0.231,-12.301 -0.011,-0.386 -0.058,-0.789 -0.101,-1.238 -2.965,0 -5.86,0 -8.754,0 -0.239,0.832 0.699,33.566 1.058,36.621 0.668,0.231 7.36,0.32 9.356,0.11 1.656,-5.551 3.191,-11.192 4.859,-16.801 0.09,0.008 0.18,0.008 0.262,0.019 1.617,5.59 3.223,11.192 4.851,16.813 h 9.223 c 0.281,-0.891 1.449,-34.543 1.289,-36.649 -0.648,-0.211 -7.488,-0.269 -8.887,-0.05 -0.187,4.679 -0.148,9.402 -0.457,14.136 -0.91,-2.187 -1.429,-4.523 -2.195,-6.761"
         style="fill:#000000;fill-opacity:1;fill-rule:nonzero;stroke:none"
         id="path348" /><path
         d="m 901.496,601.398 h -9.422 c -1.949,4.883 -3.902,9.774 -5.851,14.676 -0.379,-0.988 -0.258,-1.945 -0.278,-2.886 -0.019,-0.977 -0.011,-1.958 -0.011,-2.922 v -2.938 -2.926 -2.972 h -9.305 v 36.718 c 0.301,0.028 0.578,0.071 0.848,0.071 2.539,0.008 5.062,0.008 7.597,0 1,0 1,0 1.379,-0.961 1.688,-4.242 3.375,-8.485 5.063,-12.719 0.129,-0.328 0.289,-0.648 0.429,-0.976 0.071,0.007 0.137,0.007 0.207,0.019 0.02,0.379 0.063,0.75 0.063,1.129 0.008,4.031 0,8.074 0.008,12.109 0,0.43 0.05,0.848 0.07,1.336 h 9.203 v -36.758"
         style="fill:#000000;fill-opacity:1;fill-rule:nonzero;stroke:none"
         id="path350" /><path
         d="m 870.609,601.402 h -9.437 c -1.945,4.875 -3.902,9.766 -5.859,14.668 -0.071,-0.019 -0.141,-0.031 -0.208,-0.05 -0.16,-1.168 -0.05,-2.356 -0.07,-3.536 -0.019,-1.246 0,-2.496 0,-3.734 v -3.633 -3.695 h -9.355 v 36.609 c 0.66,0.231 7.945,0.309 9.515,0.09 0.965,-2.414 1.946,-4.891 2.934,-7.355 0.969,-2.426 1.945,-4.864 2.906,-7.27 0.149,0.031 0.18,0.031 0.207,0.051 0.02,0.008 0.051,0.039 0.051,0.07 0.02,0.098 0.051,0.199 0.051,0.289 0.019,4.684 0.031,9.356 0.051,14.028 0,0.027 0.007,0.058 0.019,0.089 0.649,0.239 7.266,0.34 9.172,0.11 0.031,-0.422 0.102,-0.871 0.102,-1.32 0,-6.387 0,-12.778 0,-19.165 0,-4.972 0,-9.957 0,-14.925 0,-0.43 -0.051,-0.848 -0.079,-1.321"
         style="fill:#000000;fill-opacity:1;fill-rule:nonzero;stroke:none"
         id="path352" /><path
         d="m 763.695,638.152 c 0.207,-1.3 0.16,-35.941 -0.05,-36.738 h -9.325 c -1.945,4.871 -3.902,9.781 -5.91,14.793 -0.347,-0.41 -0.25,-0.789 -0.25,-1.117 0,-4.172 0,-8.348 0,-12.52 v -1.148 h -9.234 c -0.199,0.808 -0.211,35.781 0,36.738 h 9.394 c 1.989,-4.871 3.875,-9.793 6.012,-14.633 0.18,4.871 0.109,9.711 0.168,14.625 h 9.195"
         style="fill:#000000;fill-opacity:1;fill-rule:nonzero;stroke:none"
         id="path354" /><path
         d="m 714.805,687.887 c 0.488,0.031 0.797,0.062 1.105,0.062 2.379,0 4.742,0 7.121,0 1.086,-0.011 1.117,-0.031 1.117,-1.191 0,-7.606 0,-15.203 0,-22.801 v -11.398 -1.161 c -0.769,-0.277 -7.386,-0.378 -9.554,-0.16 -1.938,4.832 -3.883,9.723 -5.84,14.617 -0.09,-0.019 -0.168,-0.039 -0.258,-0.05 -0.023,-4.821 0,-9.633 -0.012,-14.426 -0.707,-0.25 -7.566,-0.34 -9.195,-0.129 -0.019,0.02 -0.039,0.039 -0.059,0.059 -0.019,0.031 -0.062,0.05 -0.062,0.082 -0.02,0.269 -0.059,0.527 -0.059,0.797 0,11.769 0.012,23.539 0.02,35.312 0,0.09 0.051,0.18 0.121,0.367 0.277,0.02 0.578,0.082 0.887,0.082 2.527,0 5.054,-0.023 7.59,0.008 0.656,0.012 1.007,-0.23 1.265,-0.887 1.688,-4.304 3.414,-8.605 5.121,-12.898 0.121,-0.301 0.262,-0.59 0.422,-0.961 0.387,0.352 0.258,0.73 0.258,1.059 0.012,4.105 0.012,8.207 0.012,12.308 v 1.309"
         style="fill:#000000;fill-opacity:1;fill-rule:nonzero;stroke:none"
         id="path356" /><path
         d="m 817.652,664.57 c 1.438,-4.453 2.856,-8.836 4.325,-13.379 -3.454,-0.05 -6.778,-0.011 -10.133,-0.019 -0.211,0.637 -0.399,1.207 -0.578,1.777 -0.95,3.055 -1.887,6.117 -2.848,9.184 -0.227,0.75 -0.238,0.738 -1.059,0.699 -0.019,-0.41 -0.066,-0.828 -0.066,-1.25 -0.012,-3.035 0,-6.059 -0.012,-9.082 0,-0.391 -0.031,-0.789 -0.058,-1.328 -3.157,-0.012 -6.243,0 -9.426,0 -0.039,0.418 -0.102,0.769 -0.102,1.129 -0.007,11.488 -0.007,22.988 -0.007,34.492 0,0.129 0.007,0.27 0.007,0.398 -0.007,0.489 0.184,0.77 0.672,0.747 0.219,-0.008 0.438,0.011 0.656,0.011 4.364,0 8.727,0 13.09,-0.011 1.207,0 2.395,-0.118 3.563,-0.458 2.926,-0.847 4.515,-2.933 4.984,-6.05 0.129,-0.918 0.18,-1.867 0.188,-2.805 0.031,-2.316 0.05,-4.641 0,-6.957 -0.028,-1.031 -0.168,-2.078 -0.387,-3.086 -0.34,-1.477 -1.129,-2.687 -2.297,-3.594 -0.152,-0.109 -0.301,-0.238 -0.512,-0.418 m -10.293,6.258 c 0.75,0 1.43,-0.039 2.118,0.012 1.289,0.109 1.656,0.539 1.679,1.906 0.028,1.676 0.008,3.363 0.008,5.039 0,0.231 -0.019,0.469 -0.07,0.699 -0.129,0.668 -0.52,1.118 -1.149,1.161 -0.836,0.046 -1.687,0.007 -2.586,0.007 v -8.824"
         style="fill:#000000;fill-opacity:1;fill-rule:nonzero;stroke:none"
         id="path358" /><path
         d="m 670.125,687.797 c 1.039,0.223 8.797,0.203 9.664,-0.047 v -1.141 -24.925 c 0,-0.27 0,-0.539 0,-0.809 0.031,-1.738 1.539,-2.695 2.977,-1.848 0.32,0.2 0.617,0.598 0.75,0.977 0.148,0.461 0.148,0.988 0.148,1.488 0.012,8.305 0.012,16.613 0.012,24.918 v 1.27 c 0.719,0.32 8.164,0.41 9.582,0.129 0.019,-0.289 0.07,-0.61 0.07,-0.938 0,-8.746 0.008,-17.492 -0.012,-26.238 -0.007,-0.899 -0.089,-1.817 -0.277,-2.695 -0.668,-3.063 -2.406,-5.192 -5.152,-6.379 -1.508,-0.649 -3.086,-0.926 -4.703,-1.039 -2.036,-0.149 -4.043,-0.04 -6.02,0.48 -4.66,1.238 -7.016,4.555 -7.066,9.426 -0.102,8.875 -0.032,17.75 -0.032,26.633 0,0.23 0.039,0.461 0.059,0.738"
         style="fill:#000000;fill-opacity:1;fill-rule:nonzero;stroke:none"
         id="path360" /><path
         d="m 817.051,619.777 c 0,2.657 0,5.313 0,7.969 0,1.445 0.148,2.883 0.551,4.274 0.976,3.382 3.171,5.46 6.336,6.296 3.234,0.86 6.511,0.872 9.734,-0.097 3.574,-1.078 5.68,-3.625 6.332,-7.489 0.219,-1.277 0.289,-2.605 0.297,-3.902 0.039,-4.672 0.039,-9.344 0,-14.015 -0.02,-1.438 -0.09,-2.907 -0.379,-4.305 -0.77,-3.852 -3.024,-6.238 -6.617,-7.199 -3.125,-0.817 -6.262,-0.829 -9.375,0.031 -4.145,1.148 -6.34,4.234 -6.789,8.765 -0.039,0.43 -0.078,0.868 -0.078,1.309 -0.012,2.785 -0.012,5.578 -0.012,8.363 z m 9.695,0.051 c 0,-2.953 -0.012,-5.91 0.008,-8.863 0.012,-1.25 0.68,-1.969 1.789,-2.039 1.156,-0.059 1.906,0.621 2.055,1.867 0.031,0.23 0.019,0.469 0.019,0.711 0,5.539 0.012,11.082 0,16.621 0,0.328 0,0.68 -0.07,1 -0.227,1.137 -0.926,1.656 -2.074,1.555 -1.071,-0.09 -1.649,-0.727 -1.719,-1.887 -0.02,-0.23 -0.008,-0.469 -0.008,-0.699 0,-2.754 0,-5.508 0,-8.266"
         style="fill:#000000;fill-opacity:1;fill-rule:nonzero;stroke:none"
         id="path362" /><path
         d="m 715.445,638.168 h 12.18 c 2.285,-12.242 4.563,-24.441 6.848,-36.738 H 724.41 c -0.09,0.699 -0.187,1.418 -0.269,2.136 -0.129,1.239 -0.27,2.477 -0.379,3.711 -0.039,0.442 -0.192,0.692 -0.629,0.692 -1.227,-0.012 -2.457,0 -3.785,0 -0.45,-2.188 -0.399,-4.383 -0.766,-6.551 h -9.863 c -0.031,0.02 -0.063,0.031 -0.082,0.062 -0.02,0.02 -0.032,0.059 -0.032,0.09 2.219,11.989 4.426,23.977 6.641,35.957 0.039,0.2 0.121,0.379 0.199,0.641 m 6.192,-9.027 c -0.09,0 -0.18,0.011 -0.262,0.011 -0.43,-4.281 -0.848,-8.574 -1.289,-12.949 0.969,-0.18 1.828,-0.14 2.816,-0.027 -0.429,4.371 -0.847,8.664 -1.265,12.965"
         style="fill:#000000;fill-opacity:1;fill-rule:nonzero;stroke:none"
         id="path364" /><path
         d="m 750.34,651.184 c -2.086,12.23 -4.172,24.379 -6.27,36.648 0.91,0.219 1.785,0.09 2.657,0.109 0.847,0.032 1.707,0.012 2.554,0.012 h 2.657 2.636 c 0.676,-7.769 1.336,-15.406 2.004,-23.043 0.082,0 0.16,0 0.242,0 0.34,2.496 0.457,5.024 0.707,7.528 0.25,2.574 0.43,5.152 0.649,7.738 0.219,2.535 0.461,5.07 0.679,7.566 0.848,0.258 9.454,0.289 10.493,0.031 -2.067,-12.14 -4.145,-24.289 -6.239,-36.57 -4.242,-0.07 -8.464,-0.031 -12.769,-0.019"
         style="fill:#000000;fill-opacity:1;fill-rule:nonzero;stroke:none"
         id="path366" /><path
         d="m 844.125,687.535 c -0.297,-2.887 -0.598,-5.742 -0.898,-8.594 -1.438,0.219 -2.766,0.477 -4.102,0.606 -0.848,0.07 -1.707,0.023 -2.547,-0.098 -0.879,-0.129 -1.226,-0.64 -1.285,-1.59 -0.09,-1.476 0.207,-1.984 1.566,-2.464 1.317,-0.45 2.657,-0.829 3.981,-1.258 0.422,-0.141 0.832,-0.34 1.23,-0.528 1.746,-0.82 2.844,-2.257 3.243,-4.203 0.82,-3.926 0.941,-7.879 0.031,-11.789 -0.887,-3.867 -3.293,-6.07 -6.938,-6.832 -2.386,-0.488 -4.781,-0.359 -7.168,-0.109 -1.539,0.172 -3.066,0.48 -4.582,0.738 -0.179,0.024 -0.351,0.133 -0.59,0.223 0.348,2.914 0.7,5.789 1.067,8.773 0.5,-0.109 0.89,-0.18 1.281,-0.277 1.914,-0.461 3.844,-0.762 5.82,-0.563 1.707,0.18 2.563,1.707 1.805,3.348 -0.18,0.367 -0.609,0.707 -0.988,0.836 -0.899,0.32 -1.836,0.5 -2.746,0.762 -0.637,0.179 -1.278,0.367 -1.907,0.597 -2.476,0.93 -4.031,2.754 -4.441,5.532 -0.539,3.703 -0.621,7.437 0.121,11.128 0.727,3.645 2.863,5.801 6.309,6.493 2.093,0.418 4.203,0.539 6.32,0.246 1.465,-0.199 2.934,-0.438 4.402,-0.668 0.297,-0.051 0.598,-0.18 1.016,-0.309"
         style="fill:#000000;fill-opacity:1;fill-rule:nonzero;stroke:none"
         id="path368" /><path
         d="m 704.336,638.105 v -8.066 c -0.379,-0.027 -0.719,-0.059 -1.059,-0.066 -2.336,0 -4.679,0.007 -7.015,0 -1,0 -1.028,-0.032 -1.028,-1.059 -0.011,-1.281 -0.011,-2.559 0,-3.836 0,-0.297 0.047,-0.59 0.079,-0.976 h 8.226 c 0.031,-2.778 0.008,-5.442 0.008,-8.219 -0.418,-0.039 -0.785,-0.11 -1.145,-0.11 -1.957,-0.007 -3.925,0 -5.882,-0.007 -0.379,0 -0.747,-0.039 -1.258,-0.063 -0.071,-1.984 -0.039,-3.902 -0.02,-5.949 h 9.156 v -8.234 c -0.718,-0.219 -16.273,-0.309 -18.648,-0.11 -0.223,0.688 -0.301,35.149 -0.09,36.637 0.676,0.211 17.25,0.281 18.676,0.058"
         style="fill:#000000;fill-opacity:1;fill-rule:nonzero;stroke:none"
         id="path370" /><path
         d="m 917.207,615.699 v -5.949 h 9.094 v -8.238 c -0.719,-0.199 -16.781,-0.278 -18.66,-0.098 -0.207,0.699 -0.27,35.332 -0.071,36.649 0.7,0.199 17.403,0.25 18.539,0.058 0.25,-0.738 0.301,-6.887 0.039,-8.086 -0.308,-0.019 -0.636,-0.058 -0.976,-0.058 -2.336,-0.012 -4.684,0 -7.02,-0.012 -0.988,0 -1.015,-0.027 -1.015,-1.067 -0.012,-1.277 -0.012,-2.554 0,-3.835 0,-0.29 0.047,-0.586 0.078,-0.969 h 8.207 c 0.058,-2.774 0.019,-5.438 0.031,-8.215 -0.43,-0.039 -0.801,-0.098 -1.16,-0.109 -1.965,0 -3.922,0 -5.879,0 -0.379,0 -0.75,-0.04 -1.207,-0.071"
         style="fill:#000000;fill-opacity:1;fill-rule:nonzero;stroke:none"
         id="path372" /><path
         d="m 773.578,687.887 h 18.66 c 0.207,-0.77 0.27,-6.719 0.071,-8.207 h -8.996 c -0.122,-1.977 -0.059,-3.805 -0.051,-5.75 0.398,-0.039 0.769,-0.102 1.129,-0.11 1.957,-0.011 3.922,0 5.879,-0.011 0.371,0 0.738,-0.051 1.078,-0.071 0.242,-0.949 0.25,-7.187 0,-8.215 h -8.035 v -6.011 c 1.019,-0.188 2.027,-0.071 3.023,-0.09 0.98,-0.02 1.957,-0.008 2.937,-0.008 h 2.985 c 0.277,-0.859 0.32,-7.027 0.09,-8.086 -0.75,-0.211 -17.821,-0.23 -18.77,-0.012 v 36.571"
         style="fill:#000000;fill-opacity:1;fill-rule:nonzero;stroke:none"
         id="path374" /><path
         d="m 908.461,673.742 v -8.195 h -8.176 c -0.148,-2.055 -0.058,-4.012 -0.07,-6.09 h 9.043 c 0.25,-0.809 0.32,-6.828 0.121,-8.117 -0.707,-0.219 -17.711,-0.258 -18.789,-0.02 -0.027,0.328 -0.078,0.688 -0.078,1.047 0,11.434 0,22.863 0,34.305 0,0.16 0,0.328 0.008,0.5 0.05,0.656 0.113,0.719 0.742,0.766 0.156,0.011 0.316,0.011 0.476,0.011 5.473,0 10.942,0 16.414,0 0.368,-0.011 0.739,-0.058 1.078,-0.078 0.239,-0.961 0.25,-7.199 0,-8.199 h -8.816 c -0.25,-0.797 -0.301,-4.461 -0.098,-5.777 2.676,-0.211 5.391,0.058 8.145,-0.153"
         style="fill:#000000;fill-opacity:1;fill-rule:nonzero;stroke:none"
         id="path376" /><path
         d="m 667.188,596.258 c 0.492,0.57 0.91,1.019 1.308,1.496 1.027,1.238 1.508,2.707 1.508,4.344 0,2.765 0,5.519 0,8.277 v 26.434 1.347 h 9.594 c 0.019,-0.429 0.058,-0.847 0.058,-1.265 0,-9.485 0,-18.969 0,-28.453 0,-2.586 0.02,-5.184 -0.027,-7.766 -0.063,-3.086 -1.211,-5.672 -3.367,-7.731 -1.145,-1.105 -2.383,-2.074 -3.782,-3.011 -1.769,2.113 -3.503,4.191 -5.292,6.328"
         style="fill:#000000;fill-opacity:1;fill-rule:nonzero;stroke:none"
         id="path378" /><path
         d="m 865.035,687.895 c 0.442,0.019 0.781,0.05 1.129,0.05 6.199,0 12.399,0 18.598,0 1.301,0 1.301,0 1.301,-1.398 0.007,-1.988 0.007,-3.973 0,-5.961 -0.012,-0.969 -0.063,-1.016 -0.981,-1.027 -1.176,-0.012 -2.344,0 -3.516,-0.012 -0.336,0 -0.687,-0.027 -1.117,-0.047 -0.027,-0.512 -0.078,-0.969 -0.078,-1.43 0,-8.433 0,-16.882 0,-25.328 v -1.355 c -0.781,-0.262 -8.176,-0.332 -9.676,-0.11 -0.047,2.317 -0.007,4.653 -0.019,6.996 -0.008,2.348 0,4.704 0,7.059 v 6.969 7.148 c -0.41,0.039 -0.738,0.098 -1.067,0.098 -1.179,0.012 -2.347,0 -3.515,0.012 -0.34,0 -0.68,0.05 -1.059,0.078 v 8.258"
         style="fill:#000000;fill-opacity:1;fill-rule:nonzero;stroke:none"
         id="path380" /><path
         d="m 850.816,687.906 c 3.184,0.071 6.317,0.071 9.422,0 0.242,-0.898 0.289,-35.472 0.082,-36.558 -0.672,-0.219 -8.129,-0.282 -9.425,-0.09 -0.188,0.746 -0.278,34.273 -0.079,36.648"
         style="fill:#000000;fill-opacity:1;fill-rule:nonzero;stroke:none"
         id="path382" /><path
         d="m 739.754,687.855 v -36.617 h -9.551 c -0.031,0.399 -0.09,0.758 -0.09,1.117 0,11.461 0,22.922 0,34.383 0,0.168 0.008,0.34 0.008,0.508 -0.008,0.442 0.18,0.688 0.621,0.688 0.16,0 0.317,0.011 0.469,0.011 2.535,0 5.062,0.012 7.586,0 0.308,0 0.609,-0.058 0.957,-0.09"
         style="fill:#000000;fill-opacity:1;fill-rule:nonzero;stroke:none"
         id="path384" /><path
         d="m 747.688,551.863 h -3.661 c -4.394,8.977 -8.808,18 -13.199,26.996 -0.109,-0.019 -0.14,-0.007 -0.172,-0.031 -0.019,-0.008 -0.047,-0.027 -0.047,-0.047 -0.019,-0.07 -0.031,-0.14 -0.031,-0.199 -0.012,-8.848 -0.019,-17.703 -0.039,-26.547 0,-0.019 -0.031,-0.051 -0.082,-0.14 h -2.234 v 30.148 h 3.683 c 4.371,-8.965 8.785,-17.988 13.188,-27.004 0.09,0.031 0.129,0.031 0.148,0.051 0.02,0.019 0.051,0.051 0.051,0.07 0.012,0.07 0.02,0.129 0.02,0.199 0.019,8.844 0.031,17.692 0.039,26.536 0,0.031 0.031,0.058 0.07,0.16 h 2.207 c 0.199,-0.68 0.262,-28.594 0.059,-30.192"
         style="fill:#000000;fill-opacity:1;fill-rule:nonzero;stroke:none"
         id="path386" /><path
         d="m 862.32,582.113 c 1.032,0 1.977,-0.047 2.918,0.024 0.586,0.039 0.836,-0.27 1.067,-0.762 1.136,-2.355 2.297,-4.711 3.445,-7.066 3.082,-6.329 6.168,-12.649 9.254,-18.969 0.059,-0.121 0.129,-0.219 0.34,-0.559 0.097,1.469 0.039,2.715 0.051,3.965 0.007,1.305 0.007,2.625 0.007,3.934 v 3.832 3.933 3.832 3.934 3.855 h 2.375 v -30.152 h -3.711 c -4.375,8.945 -8.765,17.922 -13.16,26.906 -0.078,-0.019 -0.16,-0.039 -0.23,-0.058 -0.039,-2.965 -0.02,-5.942 -0.02,-8.907 -0.008,-2.996 0,-5.988 0,-8.984 v -8.996 h -2.336 v 30.238"
         style="fill:#000000;fill-opacity:1;fill-rule:nonzero;stroke:none"
         id="path388" /><path
         d="m 908.133,551.871 h -3.653 c -4.375,8.953 -8.777,17.938 -13.199,27.004 -0.351,-0.352 -0.23,-0.73 -0.23,-1.059 -0.008,-4.3 -0.008,-8.617 -0.008,-12.918 V 553 551.879 h -2.336 v 30.18 h 3.652 c 4.391,-8.993 8.797,-18.02 13.297,-27.243 0.231,1.188 0.102,2.164 0.121,3.145 0.028,1.008 0.008,2.016 0.008,3.023 v 2.926 3.024 3.027 3.035 2.922 3.027 3.094 h 2.289 c 0.18,-0.68 0.258,-28.441 0.059,-30.168"
         style="fill:#000000;fill-opacity:1;fill-rule:nonzero;stroke:none"
         id="path390" /><path
         d="m 700.262,582.074 h 3.785 c 3.285,-10.054 6.578,-20.086 9.891,-30.199 h -2.536 c -0.886,2.605 -1.765,5.191 -2.656,7.805 H 695.52 c -0.868,-2.606 -1.739,-5.192 -2.614,-7.805 h -2.527 c 3.305,10.102 6.59,20.137 9.883,30.199 m -3.914,-19.879 h 11.57 c -1.914,6.043 -3.801,11.993 -5.688,17.942 -0.07,-0.012 -0.132,-0.012 -0.203,-0.02 -1.886,-5.941 -3.761,-11.879 -5.679,-17.922"
         style="fill:#000000;fill-opacity:1;fill-rule:nonzero;stroke:none"
         id="path392" /><path
         d="m 855.211,565.992 h -12.387 v -11.679 c 1.067,-0.122 2.164,-0.04 3.254,-0.051 1.137,-0.02 2.274,0 3.414,0 h 3.324 3.356 c 0.269,-0.789 0.066,-1.535 0.129,-2.356 h -15.973 c -0.203,0.68 -0.269,28.574 -0.062,30.141 h 15.914 v -2.375 h -13.246 c -0.2,-0.82 -0.262,-9.656 -0.082,-11.184 2.027,-0.019 4.074,-0.008 6.121,-0.008 2.047,0 4.101,0 6.238,0 v -2.488"
         style="fill:#000000;fill-opacity:1;fill-rule:nonzero;stroke:none"
         id="path394" /><path
         d="m 931.109,554.293 v -2.387 h -15.933 c -0.192,0.68 -0.258,28.543 -0.071,30.153 h 15.934 v -2.387 h -13.297 c -0.23,-0.777 -0.308,-8.984 -0.121,-11.16 1.008,-0.012 2.047,-0.032 3.074,-0.032 1.039,-0.011 2.086,0 3.137,0 h 3.035 3.145 c 0.218,-0.828 0.129,-1.578 0.078,-2.445 h -12.469 v -11.742 h 13.488"
         style="fill:#000000;fill-opacity:1;fill-rule:nonzero;stroke:none"
         id="path396" /><path
         d="m 803.02,579.66 h -13.219 c -0.231,-0.765 -0.321,-8.742 -0.129,-11.109 1.008,-0.16 2.047,-0.051 3.074,-0.071 1.039,-0.019 2.086,0 3.125,0 h 3.035 3.235 v -1.277 -1.18 H 789.68 v -11.73 h 13.41 v -2.414 h -15.856 c -0.187,0.719 -0.257,28.473 -0.07,30.168 h 15.856 v -2.387"
         style="fill:#000000;fill-opacity:1;fill-rule:nonzero;stroke:none"
         id="path398" /><path
         d="m 686.195,581.461 c -0.09,-0.731 -0.179,-1.418 -0.269,-2.207 -0.367,0.059 -0.668,0.09 -0.969,0.148 -2.234,0.442 -4.492,0.789 -6.777,0.68 -1.008,-0.051 -2.028,-0.16 -3.004,-0.398 -1.629,-0.399 -2.426,-1.418 -2.528,-3.204 -0.07,-1.41 -0.039,-2.816 0.012,-4.226 0.039,-1.348 0.719,-2.293 1.906,-2.742 1.129,-0.422 2.286,-0.762 3.434,-1.121 1.52,-0.477 3.055,-0.856 4.543,-1.414 3.016,-1.129 3.902,-2.438 3.973,-5.821 0.031,-1.539 -0.008,-3.105 -0.219,-4.625 -0.289,-2.164 -1.508,-3.691 -3.484,-4.371 -1.098,-0.379 -2.266,-0.621 -3.415,-0.711 -2.925,-0.226 -5.812,0.051 -8.625,0.981 -0.332,0.097 -0.648,0.23 -1.058,0.367 0.148,0.75 0.277,1.43 0.418,2.18 0.301,-0.063 0.539,-0.071 0.769,-0.141 2.676,-0.781 5.391,-1.16 8.168,-0.969 0.778,0.059 1.567,0.199 2.325,0.43 1.316,0.418 2.148,1.398 2.418,2.836 0.316,1.734 0.289,3.484 0.007,5.219 -0.179,1.089 -0.859,1.796 -1.797,2.168 -1.039,0.41 -2.097,0.738 -3.164,1.046 -1.238,0.372 -2.515,0.649 -3.754,1.028 -0.789,0.25 -1.546,0.582 -2.296,0.941 -1.496,0.727 -2.344,2.016 -2.594,3.723 -0.289,2.035 -0.352,4.082 -0.043,6.129 0.332,2.136 1.43,3.613 3.355,4.375 1.411,0.558 2.887,0.718 4.375,0.777 2.543,0.09 5.051,-0.199 7.528,-0.82 0.238,-0.059 0.468,-0.16 0.765,-0.258"
         style="fill:#000000;fill-opacity:1;fill-rule:nonzero;stroke:none"
         id="path400" /><path
         d="m 817.664,551.887 h -2.598 v 27.734 h -8.675 v 2.426 h 19.976 c 0.02,-0.379 0.031,-0.758 0.039,-1.149 0,-0.371 0,-0.73 0,-1.218 h -8.742 v -27.793"
         style="fill:#000000;fill-opacity:1;fill-rule:nonzero;stroke:none"
         id="path402" /><path
         d="m 751.813,579.656 v 2.395 h 19.964 v -2.395 h -8.652 v -27.754 h -2.566 c -0.012,1.516 -0.02,3.043 -0.02,4.582 0,1.508 0,3.024 0,4.543 v 4.633 4.641 4.543 4.761 c -0.98,0.102 -1.918,0.04 -2.848,0.051 -0.976,0.008 -1.964,0 -2.945,0 h -2.933"
         style="fill:#000000;fill-opacity:1;fill-rule:nonzero;stroke:none"
         id="path404" /><path
         d="m 908.348,696.711 c -1.368,-2.375 -2.676,-4.652 -3.985,-6.93 h -9.093 c 0.957,2.938 1.886,5.782 2.855,8.735 0.328,-0.008 0.668,0.011 0.988,-0.047 2.793,-0.512 5.59,-1.02 8.395,-1.539 0.242,-0.051 0.48,-0.121 0.84,-0.219"
         style="fill:#000000;fill-opacity:1;fill-rule:nonzero;stroke:none"
         id="path406" /></g><g
       id="g410"
       clip-path="url(#clipPath414-5)"
       transform="matrix(0.1,0,0,0.1,0.01496038,383.22056)"><path
         d="m 830.684,551.918 h 2.47656 v 30.1484 H 830.684 Z"
         style="fill:#000000;fill-opacity:1;fill-rule:nonzero;stroke:none"
         id="path416" /></g><g
       id="g420"
       clip-path="url(#clipPath424-4)"
       transform="matrix(0.1,0,0,0.1,0.01496038,383.22056)"><path
         d="m 721.055,551.867 h -2.309 c -0.199,0.719 -0.269,28.582 -0.07,30.25 h 1.179 1.118 c 0.211,-0.758 0.281,-28.691 0.082,-30.25"
         style="fill:#000000;fill-opacity:1;fill-rule:nonzero;stroke:none"
         id="path426" /><path
         d="m 771.449,563.496 v 2.176 h 9.742 c 0.231,-0.699 0.141,-1.406 0.071,-2.176 h -9.813"
         style="fill:#000000;fill-opacity:1;fill-rule:nonzero;stroke:none"
         id="path428" /><path
         d="m 794.199,584.305 c -0.398,0.648 -0.765,1.258 -1.144,1.875 1.773,1.238 3.453,2.406 5.23,3.644 0.399,-0.617 0.797,-1.238 1.266,-1.976 -1.707,-1.328 -3.453,-2.465 -5.352,-3.543"
         style="fill:#000000;fill-opacity:1;fill-rule:nonzero;stroke:none"
         id="path430" /></g></g></svg>
